<?xml version="1.0" standalone="no"?><!DOCTYPE svg PUBLIC "-//W3C//DTD SVG 1.1//EN" "http://www.w3.org/Graphics/SVG/1.1/DTD/svg11.dtd"><svg t="1762580647620" class="icon" viewBox="0 0 1024 1024" version="1.1" xmlns="http://www.w3.org/2000/svg" p-id="5048" xmlns:xlink="http://www.w3.org/1999/xlink" width="200" height="200"><path d="M382.370909 625.105455m-372.363636 0a372.363636 372.363636 0 1 0 744.727272 0 372.363636 372.363636 0 1 0-744.727272 0Z" fill="#DFF5E3" p-id="5049"></path><path d="M808.029091 406.807273V176.64l-190.603636-103.098182-190.836364 103.330909v229.934546l190.603636 103.330909z m-46.545455-27.694546l-121.949091 66.094546V302.545455l121.949091-71.214546zM617.425455 126.370909l120.087272 64.930909-120.087272 69.818182-116.363637-67.956364-3.490909-2.094545z m-23.272728 317.672727l-119.854545-64.930909V231.098182l119.854545 69.818182zM890.414545 350.952727a23.272727 23.272727 0 0 0-23.272727 40.261818c49.570909 29.090909 77.032727 64.930909 77.032727 101.236364 0 64.232727-87.505455 125.44-212.48 148.945455a23.272727 23.272727 0 0 0 4.189091 46.545454h4.421819c151.738182-29.323636 250.181818-106.123636 250.181818-195.490909 0-53.527273-36.305455-103.796364-100.072728-141.498182z" fill="#040405" p-id="5050"></path><path d="M568.552727 649.541818c-154.763636-11.869091-277.643636-78.894545-277.643636-157.090909 0-42.123636 35.141818-74.24 64.698182-93.090909a23.272727 23.272727 0 0 0-25.6-38.865455c-55.156364 36.538182-85.643636 83.549091-85.643637 132.421819 0 106.123636 139.636364 191.069091 324.189091 203.869091v69.818181l118.225455-94.487272-118.225455-94.487273z" fill="#3CC451" p-id="5051"></path></svg>