<?xml version="1.0" standalone="no"?><!DOCTYPE svg PUBLIC "-//W3C//DTD SVG 1.1//EN" "http://www.w3.org/Graphics/SVG/1.1/DTD/svg11.dtd"><svg t="1762844103494" class="icon" viewBox="0 0 1024 1024" version="1.1" xmlns="http://www.w3.org/2000/svg" p-id="11935" xmlns:xlink="http://www.w3.org/1999/xlink" width="200" height="200"><path d="M512 1024q-49.15-1.02-84.99-35.84L34.82 596.99Q0 560.13 0 512q0-48.13 34.82-84.99L427.01 34.82Q463.87 0 512 0q48.13 0 84.99 34.82l392.19 392.19Q1024 462.85 1024 512q0 49.15-34.82 84.99L596.99 988.16Q561.15 1022.98 512 1024z m0-962.56q-23.55 0-41.98 17.41L78.85 470.02Q61.44 488.45 61.44 512q0 23.55 17.41 41.98l391.17 391.17q17.4 17.41 41.47 17.41 24.06 0 42.5-17.41l391.17-391.17q17.41-17.4 17.41-41.98t-17.41-41.98L553.99 78.85q-18.43-17.41-41.98-17.41z m8.19 200.7q92.16 0 145.41 41.99 51.2 39.93 64.51 120.83h-73.73q-10.24-49.15-44.54-73.72t-91.65-24.57q-69.63 0-110.59 48.12-44.03 50.18-44.03 138.25t39.93 134.14q41.99 50.17 132.1 50.17 35.84 0 66.56-8.19t54.27-23.55V561.16H525.31V498.7h205.83v201.73q-36.87 28.67-86.02 45.05-53.25 16.39-115.71 16.39-114.69 0-178.18-72.71-59.39-67.58-59.39-175.1t59.39-177.15q63.49-74.76 168.96-74.76z" fill="#ffffff" p-id="11936"></path></svg>