<?xml version="1.0" standalone="no"?><!DOCTYPE svg PUBLIC "-//W3C//DTD SVG 1.1//EN" "http://www.w3.org/Graphics/SVG/1.1/DTD/svg11.dtd"><svg t="1762309126792" class="icon" viewBox="0 0 1024 1024" version="1.1" xmlns="http://www.w3.org/2000/svg" p-id="26473" xmlns:xlink="http://www.w3.org/1999/xlink" width="200" height="200"><path d="M597.138286 470.406095h-5.071238l-477.037715-136.045714a16.481524 16.481524 0 0 1-11.897904-13.604571 16.14019 16.14019 0 0 1 6.826666-16.969143l306.712381-221.037715a25.35619 25.35619 0 0 1 15.36-3.413333l477.037714 136.045714c6.339048 1.706667 10.971429 7.070476 11.897905 13.55581a16.14019 16.14019 0 0 1-6.826666 17.017905l-306.809905 221.135238a24.234667 24.234667 0 0 1-10.24 3.413333v-0.097524h0.048762zM159.50019 310.369524l435.833905 124.342857 270.726095-195.535238-435.785142-124.14781L159.451429 310.369524z m85.967239 370.590476l51.053714-36.912762 19.943619 28.086857-51.053714 36.864-19.894858-28.086857h-0.048761z m105.959619-34.133333l-20.431238-27.209143 85.235809-61.244953a22.918095 22.918095 0 0 1 15.311238-3.413333l102.204953 28.91581-8.777143 32.329142-93.671619-27.16038-79.872 57.734095z m206.896762-18.822096l9.362285-32.670476 85.138286 23.844572-9.313524 32.719238-85.187047-23.893334z m119.612952 34.230858l9.313524-32.670477 68.754285 19.504762-9.362285 32.719238-68.754286-19.553523z" fill="#14BFFF" p-id="26474"></path><path d="M597.138286 946.712381h-5.071238l-477.037715-136.045714a16.481524 16.481524 0 0 1-11.897904-13.653334 16.14019 16.14019 0 0 1 6.826666-16.969143l102.107429-73.142857 20.723809 27.014096-73.240381 52.906666 435.931429 124.14781 270.628571-195.632762-85.138285-23.79581 8.825904-32.280381 119.174096 34.03581c6.339048 1.755429 10.971429 7.070476 11.897904 13.555809a16.14019 16.14019 0 0 1-6.826666 17.066667L607.573333 945.005714c-3.462095 0-6.826667 1.706667-10.24 1.706667h-0.195047z" fill="#14BFFF" p-id="26475"></path><path d="M103.375238 317.44h51.102476v476.40381H103.375238V317.44z m460.409905 136.045714h50.712381v476.452572h-51.102476l0.390095-476.40381z m-153.990095 16.920381H460.8v102.107429H409.795048V470.406095z m0-170.130285H460.8v85.089523H409.795048V300.27581z m0-204.068572H460.8v119.125333H409.795048V96.207238z m460.019809 136.094476h51.053714v476.40381h-51.053714v-476.40381z" fill="#14BFFF" p-id="26476"></path><path d="M597.138286 997.668571a68.071619 68.071619 0 0 1-0.097524-136.094476 68.071619 68.071619 0 0 1 0.097524 136.094476z m306.419809-221.086476a68.120381 68.120381 0 0 1-48.615619-116.004571 68.169143 68.169143 0 0 1 116.394667 47.981714 68.266667 68.266667 0 0 1-68.120381 68.022857h0.341333z m-476.696381-136.045714a68.071619 68.071619 0 0 1-48.176762-116.150857 68.169143 68.169143 0 0 1 116.248381 48.128 68.266667 68.266667 0 0 1-68.071619 68.022857zM120.441905 861.622857a68.071619 68.071619 0 0 1-48.176762-116.199619 68.169143 68.169143 0 0 1 116.248381 48.128 68.266667 68.266667 0 0 1-68.071619 68.071619z m0-476.208762a68.071619 68.071619 0 0 1-48.176762-116.102095 68.169143 68.169143 0 0 1 116.248381 48.030476c0.536381 18.139429-6.92419 35.59619-20.431238 47.689143-12.092952 13.409524-29.549714 20.967619-47.640381 20.382476zM426.861714 164.327619a61.878857 61.878857 0 0 1-47.396571-20.48 67.145143 67.145143 0 0 1-20.431238-47.591619A68.022857 68.022857 0 0 1 475.428571 48.176762a67.925333 67.925333 0 0 1-48.176761 116.199619h-0.341334z m476.696381 136.045714a68.071619 68.071619 0 0 1-48.615619-116.004571 68.169143 68.169143 0 0 1 116.394667 47.932952 68.266667 68.266667 0 0 1-68.120381 68.022857h0.341333z m-306.419809 221.086477a68.071619 68.071619 0 0 1-48.176762-116.150858 68.169143 68.169143 0 0 1 116.297143 48.128 68.266667 68.266667 0 0 1-68.120381 68.022858z" fill="#14BFFF" p-id="26477"></path></svg>